<svg width="599" height="465" viewBox="0 0 599 465" fill="none" xmlns="http://www.w3.org/2000/svg">
<path d="M350.776 162.133C313.832 162.353 276.315 160.633 241.223 150.888C206.131 141.143 175.095 122.756 146.88 101.281C128.408 87.3031 111.611 76.1912 87.6286 77.8668C64.1795 79.0995 41.7502 87.8505 23.6602 102.825C-6.84709 129.546 -2.21808 178.933 9.94957 213.68C28.2892 266.021 84.1017 302.355 131.494 326.034C186.292 353.417 246.469 369.335 306.823 378.463C359.726 386.488 427.662 392.353 473.467 357.782C515.569 326.078 527.119 253.586 516.803 204.64C514.292 190.184 506.596 177.139 495.157 167.953C465.575 146.346 421.49 160.766 388.249 161.515C376.125 161.78 363.385 162.088 350.776 162.133Z" fill="#F2F2F2"/>
<path d="M161.164 0.480469H180.121" stroke="#CFCFCF" stroke-width="0.85" stroke-linecap="round" stroke-linejoin="round"/>
<path d="M27.4073 287.055C29.7934 287.055 31.7277 285.12 31.7277 282.733C31.7277 280.347 29.7934 278.412 27.4073 278.412C25.0212 278.412 23.0869 280.347 23.0869 282.733C23.0869 285.12 25.0212 287.055 27.4073 287.055Z" fill="#CFCFCF"/>
<path d="M395.258 10.5762C397.644 10.5762 399.578 8.64152 399.578 6.25492C399.578 3.86832 397.644 1.93359 395.258 1.93359C392.872 1.93359 390.938 3.86832 390.938 6.25492C390.938 8.64152 392.872 10.5762 395.258 10.5762Z" fill="#CFCFCF"/>
<path d="M275.522 464.184C364.879 464.184 437.317 459.682 437.317 454.13C437.317 448.577 364.879 444.076 275.522 444.076C186.165 444.076 113.728 448.577 113.728 454.13C113.728 459.682 186.165 464.184 275.522 464.184Z" fill="#F2F2F2"/>
<path d="M150.893 42.502H385.869C391.716 42.502 397.322 44.8248 401.456 48.9595C405.59 53.0942 407.912 58.7021 407.912 64.5495V344.156C407.912 350.004 405.59 355.612 401.456 359.746C397.322 363.881 391.716 366.204 385.869 366.204H120.782C114.936 366.204 109.329 363.881 105.195 359.746C101.062 355.612 98.7393 350.004 98.7393 344.156V95.1956L150.893 42.502Z" fill="white" stroke="#BABABA" stroke-linecap="round" stroke-linejoin="round"/>
<path d="M406.854 178.758H164.559V368.896H406.854V178.758Z" fill="#D2D2D2"/>
<path d="M98.7393 95.1956H141.458C143.964 95.1839 146.364 94.1799 148.132 92.4033C149.9 90.6266 150.893 88.2219 150.893 85.7151V42.502L98.7393 95.1956Z" fill="white" stroke="#BABABA" stroke-linecap="round" stroke-linejoin="round"/>
<path d="M405.663 118.037H166.013C156.688 118.037 149.128 125.598 149.128 134.926V186.208C149.128 195.535 156.688 203.097 166.013 203.097H405.663C414.988 203.097 422.547 195.535 422.547 186.208V134.926C422.547 125.598 414.988 118.037 405.663 118.037Z" fill="white" stroke="#BABABA" stroke-linecap="round" stroke-linejoin="round"/>
<path d="M195.684 175.405C203.816 175.405 210.408 168.811 210.408 160.677C210.408 152.543 203.816 145.949 195.684 145.949C187.551 145.949 180.959 152.543 180.959 160.677C180.959 168.811 187.551 175.405 195.684 175.405Z" fill="#D2D2D2"/>
<path d="M241.973 175.405C250.105 175.405 256.697 168.811 256.697 160.677C256.697 152.543 250.105 145.949 241.973 145.949C233.84 145.949 227.248 152.543 227.248 160.677C227.248 168.811 233.84 175.405 241.973 175.405Z" fill="#D2D2D2"/>
<path d="M288.219 175.405C296.351 175.405 302.943 168.811 302.943 160.677C302.943 152.543 296.351 145.949 288.219 145.949C280.087 145.949 273.494 152.543 273.494 160.677C273.494 168.811 280.087 175.405 288.219 175.405Z" fill="#D2D2D2"/>
<path d="M405.663 212.312H166.013C156.688 212.312 149.128 219.874 149.128 229.201V280.484C149.128 289.811 156.688 297.372 166.013 297.372H405.663C414.988 297.372 422.547 289.811 422.547 280.484V229.201C422.547 219.874 414.988 212.312 405.663 212.312Z" fill="white" stroke="#BABABA" stroke-linecap="round" stroke-linejoin="round"/>
<path d="M195.684 269.723C203.816 269.723 210.408 263.129 210.408 254.995C210.408 246.861 203.816 240.268 195.684 240.268C187.551 240.268 180.959 246.861 180.959 254.995C180.959 263.129 187.551 269.723 195.684 269.723Z" fill="#D2D2D2"/>
<path d="M241.973 269.723C250.105 269.723 256.697 263.129 256.697 254.995C256.697 246.861 250.105 240.268 241.973 240.268C233.84 240.268 227.248 246.861 227.248 254.995C227.248 263.129 233.84 269.723 241.973 269.723Z" fill="#D2D2D2"/>
<path d="M288.219 269.723C296.351 269.723 302.943 263.129 302.943 254.995C302.943 246.861 296.351 240.268 288.219 240.268C280.087 240.268 273.494 246.861 273.494 254.995C273.494 263.129 280.087 269.723 288.219 269.723Z" fill="#D2D2D2"/>
<path d="M405.663 306.633H166.013C156.688 306.633 149.128 314.194 149.128 323.521V374.804C149.128 384.131 156.688 391.692 166.013 391.692H405.663C414.988 391.692 422.547 384.131 422.547 374.804V323.521C422.547 314.194 414.988 306.633 405.663 306.633Z" fill="white" stroke="#BABABA" stroke-linecap="round" stroke-linejoin="round"/>
<path d="M195.684 363.998C203.816 363.998 210.408 357.405 210.408 349.271C210.408 341.137 203.816 334.543 195.684 334.543C187.551 334.543 180.959 341.137 180.959 349.271C180.959 357.405 187.551 363.998 195.684 363.998Z" fill="#D2D2D2"/>
<path d="M241.973 363.998C250.105 363.998 256.697 357.405 256.697 349.271C256.697 341.137 250.105 334.543 241.973 334.543C233.84 334.543 227.248 341.137 227.248 349.271C227.248 357.405 233.84 363.998 241.973 363.998Z" fill="#D2D2D2"/>
<path d="M288.219 363.998C296.351 363.998 302.943 357.405 302.943 349.271C302.943 341.137 296.351 334.543 288.219 334.543C280.087 334.543 273.494 341.137 273.494 349.271C273.494 357.405 280.087 363.998 288.219 363.998Z" fill="#D2D2D2"/>
<path d="M427.354 225.453C477.827 225.453 518.743 184.528 518.743 134.044C518.743 83.56 477.827 42.6348 427.354 42.6348C376.88 42.6348 335.964 83.56 335.964 134.044C335.964 184.528 376.88 225.453 427.354 225.453Z" fill="white" stroke="#BABABA" stroke-linecap="round" stroke-linejoin="round"/>
<path d="M492.248 200.361L516.583 224.702" stroke="#BABABA" stroke-linecap="round" stroke-linejoin="round"/>
<path d="M513.863 212.887L506.308 220.792C502.909 224.348 503.036 229.986 506.591 233.385L572.238 296.154C575.793 299.553 581.43 299.426 584.829 295.87L592.384 287.965C595.782 284.41 595.655 278.771 592.1 275.372L526.454 212.604C522.899 209.204 517.261 209.331 513.863 212.887Z" fill="white" stroke="#BABABA" stroke-linecap="round" stroke-linejoin="round"/>
<g clip-path="url(#clip0_2289_37343)">
<mask id="mask0_2289_37343" style="mask-type:luminance" maskUnits="userSpaceOnUse" x="175" y="76" width="147" height="26">
<path d="M321.185 76.4746H175.741V101.114H321.185V76.4746Z" fill="white"/>
</mask>
<g mask="url(#mask0_2289_37343)">
<path d="M193.343 96.3319C193.676 96.3319 193.954 96.4481 194.175 96.6806C194.397 96.913 194.508 97.1952 194.508 97.5273V99.9513C194.508 100.261 194.397 100.532 194.175 100.765C193.954 100.997 193.676 101.114 193.343 101.114H176.906C176.595 101.114 176.324 100.997 176.091 100.765C175.858 100.532 175.741 100.261 175.741 99.9513V97.5273C175.741 97.1952 175.858 96.913 176.091 96.6806C176.324 96.4481 176.595 96.3319 176.906 96.3319H193.343ZM176.906 91.1849C176.595 91.1849 176.324 91.0687 176.091 90.8363C175.858 90.6038 175.741 90.3327 175.741 90.0227V87.5323C175.741 87.2224 175.858 86.9511 176.091 86.7187C176.324 86.4862 176.595 86.37 176.906 86.37H191.846C192.179 86.37 192.462 86.4862 192.695 86.7187C192.928 86.9511 193.044 87.2224 193.044 87.5323V90.0227C193.044 90.3327 192.928 90.6038 192.695 90.8363C192.462 91.0687 192.179 91.1849 191.846 91.1849H176.906ZM193.343 76.4746C193.676 76.4746 193.954 76.5908 194.175 76.8233C194.397 77.0557 194.508 77.3269 194.508 77.6368V80.0609C194.508 80.3929 194.397 80.6752 194.175 80.9076C193.954 81.1401 193.676 81.2563 193.343 81.2563H176.906C176.595 81.2563 176.324 81.1401 176.091 80.9076C175.858 80.6752 175.741 80.3929 175.741 80.0609V77.6368C175.741 77.3269 175.858 77.0557 176.091 76.8233C176.324 76.5908 176.595 76.4746 176.906 76.4746H193.343Z" fill="#3F3E3E"/>
<path d="M220.916 88.6838C221.824 89.253 222.516 89.9486 222.991 90.7707C223.466 91.5928 223.704 92.5098 223.704 93.5216C223.704 95.9036 222.796 97.727 220.979 98.9917C219.754 99.8771 218.096 100.436 216.005 100.668H215.878C215.582 100.668 215.339 100.573 215.149 100.383C214.896 100.151 214.769 99.8771 214.769 99.5609V97.2843C214.769 97.0103 214.864 96.7678 215.054 96.557C215.244 96.3462 215.477 96.2198 215.751 96.1776C216.744 96.0722 217.515 95.8403 218.064 95.482C218.487 95.229 218.772 94.9023 218.92 94.5018C219.004 94.2699 219.047 93.9748 219.047 93.6165C219.047 93.3846 219.004 93.1843 218.92 93.0157C218.835 92.8471 218.687 92.689 218.476 92.5414C217.864 92.1198 217.072 91.7614 216.1 91.4664L215.593 91.3083C214.537 91.0131 213.565 90.7707 212.678 90.581C212.488 90.5388 212.182 90.4651 211.759 90.3597L211.411 90.2648C210.65 90.0751 209.847 89.8116 209.003 89.4743C207.756 88.9473 206.732 88.2833 205.929 87.4823C205 86.5548 204.535 85.3322 204.535 83.8145C204.535 81.7276 205.338 80.0307 206.943 78.7238C208.041 77.7963 209.583 77.206 211.569 76.9531C211.907 76.9109 212.197 77.0058 212.44 77.2377C212.683 77.4695 212.805 77.7436 212.805 78.0598V80.3364C212.805 80.6104 212.72 80.8528 212.551 81.0636C212.382 81.2744 212.166 81.3956 211.902 81.4272C211.638 81.4588 211.368 81.5168 211.094 81.6011C210.481 81.833 210.048 82.0596 209.795 82.281C209.541 82.5023 209.362 82.7289 209.256 82.9608C209.15 83.3191 209.098 83.6564 209.098 83.9726C209.098 84.1412 209.193 84.3204 209.383 84.5101C209.679 84.8052 210.112 85.0687 210.682 85.3006C210.935 85.406 211.379 85.5641 212.013 85.7749L215.973 86.7551L216.163 86.8183C217.156 87.0924 217.874 87.3032 218.318 87.4507C219.311 87.7879 220.177 88.199 220.916 88.6838ZM215.625 81.5379C215.371 81.4747 215.165 81.3429 215.007 81.1426C214.848 80.9424 214.769 80.7052 214.769 80.4312V78.123C214.769 77.7857 214.906 77.5012 215.181 77.2693C215.287 77.1639 215.424 77.0954 215.593 77.0638C215.762 77.0321 215.92 77.0269 216.068 77.0479C217.927 77.3431 219.437 77.9754 220.599 78.9451C222.183 80.252 223.028 81.9173 223.134 83.9409C223.155 84.2361 223.055 84.5048 222.833 84.7472C222.611 84.9896 222.342 85.1109 222.025 85.1109H219.553C219.279 85.1109 219.036 85.016 218.825 84.8263C218.614 84.6366 218.497 84.4047 218.476 84.1307C218.392 83.5826 218.212 83.1294 217.938 82.771C217.494 82.244 216.807 81.8435 215.878 81.5695C215.815 81.5695 215.772 81.5589 215.751 81.5379H215.625ZM211.918 96.0511C212.171 96.0933 212.382 96.2198 212.551 96.4306C212.72 96.6414 212.805 96.8732 212.805 97.1262V99.466C212.805 99.8033 212.678 100.088 212.424 100.32C212.213 100.488 211.97 100.573 211.696 100.573H211.537C209.573 100.278 207.957 99.6347 206.69 98.6439C205.042 97.337 204.113 95.5136 203.901 93.1738C203.859 92.8365 203.954 92.5467 204.187 92.3043C204.419 92.0618 204.693 91.9406 205.01 91.9406H207.513C207.809 91.9406 208.063 92.0408 208.274 92.241C208.485 92.4413 208.601 92.689 208.622 92.9841C208.686 94.038 209.203 94.8496 210.175 95.4188C210.618 95.6717 211.199 95.8825 211.918 96.0511ZM232.43 76.9531C232.747 76.9531 233.016 77.0638 233.238 77.2851C233.46 77.5064 233.571 77.7752 233.571 78.0914V80.3996C233.571 80.7158 233.46 80.9845 233.238 81.2059C233.016 81.4272 232.747 81.5379 232.43 81.5379H229.167C228.871 81.5379 228.612 81.4272 228.39 81.2059C228.168 80.9845 228.058 80.7158 228.058 80.3996V78.0914C228.058 77.7752 228.168 77.5064 228.39 77.2851C228.612 77.0638 228.871 76.9531 229.167 76.9531H232.43ZM246.593 76.9531C246.889 76.9531 247.147 77.0638 247.369 77.2851C247.591 77.5064 247.702 77.7752 247.702 78.0914V80.3996C247.702 80.7158 247.591 80.9845 247.369 81.2059C247.147 81.4272 246.889 81.5379 246.593 81.5379H240.225V99.4977C240.225 99.7927 240.113 100.051 239.892 100.272C239.67 100.494 239.411 100.604 239.115 100.604H236.676C236.359 100.604 236.089 100.494 235.868 100.272C235.646 100.051 235.535 99.7927 235.535 99.4977V78.0914C235.535 77.7752 235.646 77.5064 235.868 77.2851C236.089 77.0638 236.359 76.9531 236.676 76.9531H246.593ZM274.361 98.8653C274.509 99.2025 274.472 99.5451 274.251 99.8929C274.029 100.241 273.727 100.415 273.347 100.415H252.246C252.055 100.415 251.876 100.367 251.707 100.272C251.538 100.177 251.411 100.056 251.327 99.9087C251.095 99.5714 251.063 99.2236 251.232 98.8653L252.214 96.557C252.298 96.3462 252.436 96.1776 252.626 96.0511C252.816 95.9246 253.016 95.8614 253.228 95.8614H267.993L262.796 83.4667L258.551 93.5849C258.466 93.7956 258.334 93.959 258.155 94.0749C257.975 94.1909 257.769 94.2488 257.537 94.2488H254.875C254.474 94.2488 254.157 94.0802 253.925 93.7429C253.84 93.5954 253.787 93.4268 253.767 93.237C253.745 93.0473 253.767 92.8681 253.83 92.6995L260.262 77.6487C260.346 77.4379 260.478 77.2693 260.658 77.1428C260.837 77.0163 261.043 76.9531 261.276 76.9531H264.318C264.55 76.9531 264.756 77.0163 264.935 77.1428C265.115 77.2693 265.247 77.4379 265.331 77.6487L274.361 98.8653ZM282.232 76.9531C282.549 76.9531 282.818 77.0638 283.04 77.2851C283.262 77.5064 283.372 77.7752 283.372 78.0914V80.3996C283.372 80.7158 283.262 80.9845 283.04 81.2059C282.818 81.4272 282.549 81.5379 282.232 81.5379H278.968C278.673 81.5379 278.414 81.4272 278.192 81.2059C277.97 80.9845 277.859 80.7158 277.859 80.3996V78.0914C277.859 77.7752 277.97 77.5064 278.192 77.2851C278.414 77.0638 278.673 76.9531 278.968 76.9531H282.232ZM296.395 76.9531C296.69 76.9531 296.949 77.0638 297.171 77.2851C297.393 77.5064 297.504 77.7752 297.504 78.0914V80.3996C297.504 80.7158 297.393 80.9845 297.171 81.2059C296.949 81.4272 296.69 81.5379 296.395 81.5379H290.026V99.4977C290.026 99.7927 289.915 100.051 289.693 100.272C289.472 100.494 289.213 100.604 288.917 100.604H286.477C286.161 100.604 285.891 100.494 285.669 100.272C285.448 100.051 285.337 99.7927 285.337 99.4977V78.0914C285.337 77.7752 285.448 77.5064 285.669 77.2851C285.891 77.0638 286.161 76.9531 286.477 76.9531H296.395ZM320.076 95.8614C320.393 95.8614 320.656 95.9721 320.868 96.1934C321.079 96.4148 321.185 96.6835 321.185 96.9997V99.3079C321.185 99.6031 321.079 99.8613 320.868 100.083C320.656 100.304 320.393 100.415 320.076 100.415H304.424C304.128 100.415 303.869 100.304 303.647 100.083C303.426 99.8613 303.315 99.6031 303.315 99.3079V96.9997C303.315 96.6835 303.426 96.4148 303.647 96.1934C303.869 95.9721 304.128 95.8614 304.424 95.8614H320.076ZM304.424 90.9604C304.128 90.9604 303.869 90.8497 303.647 90.6285C303.426 90.4071 303.315 90.1489 303.315 89.8537V87.4823C303.315 87.1872 303.426 86.929 303.647 86.7076C303.869 86.4863 304.128 86.3756 304.424 86.3756H318.65C318.967 86.3756 319.236 86.4863 319.458 86.7076C319.68 86.929 319.79 87.1872 319.79 87.4823V89.8537C319.79 90.1489 319.68 90.4071 319.458 90.6285C319.236 90.8497 318.967 90.9604 318.65 90.9604H304.424ZM320.076 76.9531C320.393 76.9531 320.656 77.0638 320.868 77.2851C321.079 77.5064 321.185 77.7647 321.185 78.0598V80.368C321.185 80.6842 321.079 80.9529 320.868 81.1743C320.656 81.3956 320.393 81.5063 320.076 81.5063H304.424C304.128 81.5063 303.869 81.3956 303.647 81.1743C303.426 80.9529 303.315 80.6842 303.315 80.368V78.0598C303.315 77.7647 303.426 77.5064 303.647 77.2851C303.869 77.0638 304.128 76.9531 304.424 76.9531H320.076Z" fill="#BAB9B9"/>
</g>
</g>
<defs>
<clipPath id="clip0_2289_37343">
<!--<rect width="145.716" height="24.639" fill="white" transform="translate(175.741 76.4746)"/>-->
</clipPath>
</defs>
</svg>
